<svg xmlns="http://www.w3.org/2000/svg" xmlns:xlink="http://www.w3.org/1999/xlink" width="397" height="396" viewBox="0 0 397 396">
    <defs>
        <path id="prefix__a" d="M349.475 127.611c26.148 45.24 21.971 102.652 4.26 147.389-17.71 44.737-49.039 76.8-87.635 96.776-38.68 19.977-84.711 27.782-122.388 11.919-37.761-15.78-67.168-55.313-76.274-98.54-9.106-43.225 2.089-90.229 29.24-135.721 27.15-45.576 70.258-89.642 120.133-95.014 49.874-5.455 106.432 27.867 132.664 73.191z"/>
    </defs>
    <g fill="none" fill-rule="evenodd">
        <path fill="#C5CFD6" d="M76.367 150.863c0 .003-.002.006-.004.01.002-.003.004-.016.004-.01" transform="translate(-26 -25)"/>
        <path fill="#C5CFD6" d="M76.364 150.868v.003c0-.003.005-.013 0-.003M76.386 150.816l-.015.036.007-.017.008-.02" transform="translate(-26 -25)"/>
        <path fill="#C5CFD6" d="M76.372 150.853l-.007.017c-.018.034.007-.017.007-.017M76.365 150.867L76.365 150.867 76.365 150.867z" transform="translate(-26 -25)"/>
        <g transform="translate(-26 -25) rotate(30 216.188 223)">
            <use fill="#FFF" xlink:href="#prefix__a"/>
            <use fill="#0060E1" fill-opacity=".2" xlink:href="#prefix__a"/>
        </g>
        <path fill="#C5CFD6" d="M76.365 150.868v-.001M76.362 150.872c-.004.008.017-.028 0 0M76.365 150.868v-.001" transform="translate(-26 -25)"/>
        <g transform="translate(-26 -25) translate(31.644 107.66)">
            <rect width="228.757" height="180.699" x=".769" fill="#0065AE" rx="7.2"/>
            <g>
                <path fill="#FFF" d="M36.909 0c11.56 0 21.878 5.314 28.646 13.634L36.909 36.909v36.908C16.525 73.817 0 57.293 0 36.91S16.525 0 36.909 0z" transform="translate(26.63 18.82)"/>
                <path fill="#000" d="M39.37 41.83l26.11 26.086C58.8 74.603 49.567 78.74 39.37 78.74v-36.91z" opacity=".204" transform="translate(26.63 18.82)"/>
                <path fill="#FFF" d="M69.32 14.764c5.121 6.337 8.188 14.402 8.188 23.184 0 10.13-4.08 19.305-10.686 25.974L40.6 37.948z" opacity=".204" transform="translate(26.63 18.82)"/>
            </g>
            <g fill="#FFF">
                <path d="M16.609 17.993H26.298000000000002V59.515H16.609zM0 41.522H9.689V59.515H0zM33.218 26.297H42.907000000000004V59.515H33.218zM49.827 0H59.516V59.515H49.827z" transform="translate(135.818 32.661)"/>
            </g>
            <g fill="#FFF">
                <path d="M0 0H7.689V7.689H0zM0 13.841H7.689V21.53H0zM0 27.682H7.689V35.370999999999995H0z" transform="translate(26.63 118.782)"/>
                <path fill-opacity=".333" d="M12.303 0H66.128V7.689H12.303zM109.188 0H175.316V7.689H109.188zM109.188 13.841H170.703V21.53H109.188zM12.303 13.841H43.06V21.53H12.303zM12.303 27.682H49.212V35.370999999999995H12.303z" transform="translate(26.63 118.782)"/>
            </g>
        </g>
        <g>
            <path fill="#B28B67" d="M50.447 21.906c3.172 5.896 2.795 20.85-1.305 21.904-1.635.42-5.119-.609-8.664-2.74l2.225 15.697h-13.14l4.524-21.02c-2.522-2.953-4.23-6.57-3.945-10.625.823-11.68 17.132-9.111 20.305-3.216z" transform="translate(-26 -25) scale(-1 1) rotate(-8 1198.942 2882.81)"/>
            <path fill="#191847" d="M45.257 15.485c-1.796-.546-4.402-.73-5.499-.605.624-1.49.872-3.15.67-4.766-.196-1.57-.9-2.908-1.551-4.309-.3-.646-.64-1.288-1.147-1.782-.516-.503-1.17-.835-1.856-.994-.701-.162-1.435-.149-2.137-.001-.311.065-.59.206-.895.285-.312.08-.463-.114-.69-.31-.546-.471-1.347-.704-2.037-.788-.775-.093-1.58.023-2.319.277-.72.248-1.41.65-1.93 1.234-.232.26-.442.557-.579.884-.056.135-.065.214-.2.263-.124.046-.27.047-.398.09-1.24.42-2.3 1.375-2.878 2.602-.337.716-.497 1.976-.453 3.389.044 1.412 1.323 5.098 2.52 6.442 1.067 1.2 2.637 1.992 4.152 2.339-1.005 1.146-1.675 2.578-2.17 4.034-.537 1.582-.87 3.226-.993 4.9-.117 1.592-.127 3.275.247 4.832.35 1.457 1.098 2.652 2.348 3.41.572.347 1.188.608 1.808.846.61.235 1.223.463 1.862.595 1.21.25 2.605.207 3.537-.754.336-.346.706-.781.95-1.204.089-.152.142-.252.035-.4-.128-.178-.336-.315-.5-.454-.94-.794-1.522-1.855-1.669-3.115-.149-1.278.196-2.929 1.443-3.487 1.539-.688 3.234.102 4.602.84.58-2.046 1.775-3.888 3.646-4.827 2.07-1.038 4.446-1.16 6.574-2.05.555-.232 1.12-.496 1.528-.968.17-.198.37-.454.438-.716.09-.343-.132-.631-.304-.899-.91-1.42-4.36-4.287-6.155-4.833z" transform="translate(-26 -25) scale(-1 1) rotate(-8 1198.942 2882.81)"/>
        </g>
        <g>
            <path fill="#997659" d="M72.172 0L112.854 67.807 143.353 125.132 149.922 125.132 98.82 0z" transform="translate(-26 -25) matrix(-1 0 0 1 419.879 290.004)"/>
            <path fill="#E4E4E4" d="M139.516 122.018c-.732 1.867-1.099 3.242-1.099 4.127 0 .984.165 2.42.494 4.31h30.879c.802-2.646.339-4.073-1.39-4.284-1.729-.211-3.165-.402-4.309-.572l-14.566-6.474c-.161-.072-.35.001-.422.163l-.004.007-1.011 2.447c-1.6.744-2.901 1.117-3.902 1.117-.892 0-2.158-.395-3.797-1.183-.318-.154-.7-.02-.854.299l-.02.043z" transform="translate(-26 -25) matrix(-1 0 0 1 419.879 290.004)"/>
            <path fill="#243746" d="M134.882 115.953l12.669-3.82c-5.55-16.544-12.353-34.75-20.409-54.616C119.087 37.65 110.436 18.477 101.19 0H65.408c10.28 23.373 21.18 44.61 32.696 63.713 11.517 19.101 23.777 36.515 36.778 52.24z" transform="translate(-26 -25) matrix(-1 0 0 1 419.879 290.004)"/>
            <path fill="#B28B67" d="M69.499 0c-3.84 23.828-11.245 54.27-11.944 55.21-.466.627-17.239 6.23-50.32 16.811l1.42 5.776c39.448-5.675 60.234-10.078 62.357-13.208C74.197 59.893 90.102 22.796 96.262 0H69.498z" transform="translate(-26 -25) matrix(-1 0 0 1 419.879 290.004)"/>
            <path fill="#515F6E" d="M18.864 67.029l2.5 9.301c29.504 2.58 47.583.716 54.234-5.592C82.25 64.429 89.831 40.85 98.341 0h-34.12c-5.391 33.45-8.405 50.878-9.042 52.283-.637 1.404-12.742 6.32-36.315 14.746z" transform="translate(-26 -25) matrix(-1 0 0 1 419.879 290.004)"/>
            <path fill="#E4E4E4" d="M9.356 69.666c-1.965-.397-3.383-.52-4.255-.366-.969.171-2.355.583-4.157 1.235l5.362 30.41c2.744.33 4.07-.374 3.977-2.113-.093-1.74-.155-3.187-.186-4.342l3.847-15.47c.042-.171-.062-.345-.234-.387l-.008-.002-2.585-.572c-1.011-1.447-1.604-2.663-1.777-3.648-.155-.88.013-2.194.506-3.945.095-.34-.103-.693-.443-.79l-.047-.01z" transform="translate(-26 -25) matrix(-1 0 0 1 419.879 290.004)"/>
        </g>
        <g>
            <path fill="#997659" d="M89.605 25.33c2.372-.486 8.162-4.779 9.16-3.907 1.475 1.29.159 5.249-1.392 7.219-2.897 3.681-5.297 4.94-11.227 6.588-3.1.862-6.453 2.59-10.058 5.184l-.475-8.352 8.347-4.572c1.172-4.443 2.572-6.678 4.2-6.706 1.252-.58-.927 5.034 1.445 4.547zM75.238 6.3c-1.533 2.712-3.022 5.633-2.242 6.469.781.836 2.728-.332 3.66 1.057.62.925-2.706 2.387-9.98 4.386L52.87 30.816l-7.018-7.509 19.003-10.376c3.16-3.742 6.274-6.647 9.34-8.717.938-.39 2.577-.626 1.044 2.086z" transform="translate(-26 -25) scale(-1 1) rotate(-8 1509.666 2779.525)"/>
            <path fill="#243746" d="M36.597 20.996c6.656-.07 15.531-1.472 25.002-7.465l3.72 8.269c-6.533 6.463-15.719 11.774-23.75 11.55-6.33-.178-9.564-7.81-4.972-12.354z" transform="translate(-26 -25) scale(-1 1) rotate(-8 1509.666 2779.525)"/>
            <path fill="#0065AE" d="M37.04 0c.838 10.736 5.056 22.567 8.519 34.256 7.065 1.758 18.915-.314 35.549-6.215 4.125 8.51 6.032 14.577 5.721 18.2-14.27 7.432-26.501 10.745-36.577 10.963.324 5.96-.404 11.631-2.848 16.814-5.026 10.654-34.453.787-44.347 2.73-6.196-20.062 5.784-28.216 5.794-41.052C8.861 21.638 20.183 0 21.849 0z" transform="translate(-26 -25) scale(-1 1) rotate(-8 1509.666 2779.525)"/>
        </g>
    </g>
</svg>
